<svg width="166" height="32" viewBox="0 0 166 32" fill="none" xmlns="http://www.w3.org/2000/svg">
<g clip-path="url(#clip0_313_2005)">
<path fill-rule="evenodd" clip-rule="evenodd" d="M142.709 22.6223H160.285V19.5743H145.772V7.90118C145.776 6.61524 146.291 5.38309 147.205 4.47378C148.119 3.56446 149.357 3.05184 150.649 3.04787H152.347C154.982 3.04787 157.029 5.06235 157.21 7.65104L157.237 8.03393L156.903 8.22582C156.811 8.27819 156.722 8.33562 156.637 8.39785C156.464 8.52346 156.301 8.66192 156.148 8.81205C155.54 9.41567 155.091 10.3896 155.091 11.2499C155.069 11.8976 155.22 12.5397 155.529 13.1103C155.84 13.6672 156.308 14.1696 156.717 14.658L157.124 15.1432L157.771 15.9288L158.214 16.4546C158.287 16.5479 158.366 16.6365 158.45 16.7198C158.555 16.7953 158.685 16.8296 158.814 16.8164C159.103 16.8164 159.413 16.3538 159.571 16.1516C159.66 16.0381 159.753 15.9282 159.845 15.8174L160.627 14.8719L160.635 14.863C160.854 14.6175 161.06 14.3596 161.266 14.1029C161.4 13.9359 161.533 13.768 161.663 13.5977C161.745 13.4956 161.822 13.3891 161.892 13.2788C162.166 12.8235 162.418 12.1671 162.418 11.6312C162.418 10.9445 162.392 10.4447 162.077 9.81958C161.754 9.14632 161.234 8.58641 160.584 8.21379L160.292 8.04364L160.279 7.70625C160.119 3.41149 156.696 -0.00109863 152.347 -0.00109863H150.649C148.545 0.00330498 146.528 0.837154 145.041 2.31795C143.553 3.79875 142.715 5.80587 142.711 7.90002V22.6223H142.709ZM158.766 13.0832C158.441 13.0832 158.123 12.9872 157.853 12.8074C157.583 12.6276 157.372 12.372 157.248 12.0731C157.123 11.7741 157.091 11.4451 157.154 11.1277C157.218 10.8103 157.374 10.5188 157.604 10.29C157.834 10.0612 158.127 9.90532 158.446 9.84218C158.765 9.77904 159.095 9.81143 159.396 9.93526C159.696 10.0591 159.953 10.2688 160.133 10.5378C160.314 10.8069 160.41 11.1232 160.41 11.4468C160.411 11.6617 160.368 11.8745 160.285 12.0731C160.203 12.2716 160.082 12.452 159.929 12.6039C159.776 12.7559 159.595 12.8764 159.396 12.9587C159.196 13.0409 158.982 13.0832 158.766 13.0832ZM166 28.9527H136.994V32.0005H166V28.9527ZM162.91 24.2639H140.083V27.3115H162.91V24.2639Z" fill="#111827"/>
<path fill-rule="evenodd" clip-rule="evenodd" d="M125.486 31.9206V26.8458H127.474C127.832 26.8424 128.188 26.9061 128.523 27.0335C128.836 27.1533 129.121 27.3337 129.364 27.5642C129.603 27.7921 129.793 28.0659 129.922 28.369C130.188 29.018 130.188 29.7448 129.922 30.3938C129.794 30.6977 129.605 30.9727 129.368 31.2023C129.127 31.4333 128.842 31.6137 128.53 31.7329C128.198 31.8602 127.845 31.9241 127.489 31.9213H125.487L125.486 31.9206ZM126.473 27.7193V31.0471H127.459C127.76 31.0539 128.057 30.983 128.322 30.8413C128.566 30.7066 128.766 30.5048 128.899 30.2602C129.042 29.9865 129.113 29.681 129.105 29.3725C129.113 29.0694 129.04 28.7696 128.895 28.5029C128.76 28.26 128.559 28.0598 128.315 27.9254C128.052 27.7842 127.757 27.7133 127.459 27.7196L126.473 27.7193Z" fill="#111827"/>
<path fill-rule="evenodd" clip-rule="evenodd" d="M120.452 31.9206V26.8458H123.963V27.7121H121.439V28.9103H123.745V29.7477H121.439V31.0542H123.999V31.9204H120.452V31.9206Z" fill="#111827"/>
<path fill-rule="evenodd" clip-rule="evenodd" d="M114.512 31.9206V26.8458H115.201L117.754 30.1357V26.8458H118.748V31.9206H118.037L115.498 28.6489V31.9206H114.512Z" fill="#111827"/>
<path d="M112.8 26.8458H111.813V31.9204H112.8V26.8458Z" fill="#111827"/>
<path fill-rule="evenodd" clip-rule="evenodd" d="M107.86 31.9928C107.51 31.9954 107.163 31.9279 106.841 31.7942C106.528 31.6646 106.244 31.4745 106.006 31.2348C105.513 30.7407 105.237 30.072 105.239 29.3755C105.241 28.6791 105.521 28.0119 106.017 27.5208C106.261 27.2816 106.549 27.0927 106.866 26.965C107.2 26.8307 107.557 26.7632 107.918 26.7664C108.317 26.7621 108.712 26.842 109.078 27.001C109.419 27.1485 109.72 27.375 109.956 27.6616L109.288 28.3257C109.132 28.1213 108.928 27.9578 108.694 27.8493C108.448 27.7367 108.181 27.68 107.91 27.6832C107.61 27.6774 107.314 27.7509 107.051 27.8963C106.805 28.0354 106.603 28.2405 106.467 28.4881C106.323 28.7601 106.25 29.0645 106.257 29.3722C106.251 29.6818 106.322 29.9882 106.464 30.2636C106.593 30.5123 106.789 30.7208 107.03 30.8664C107.278 31.0133 107.563 31.0883 107.853 31.0829C108.136 31.0908 108.418 31.0301 108.672 30.9061C108.897 30.7912 109.079 30.6094 109.195 30.3862C109.261 30.258 109.309 30.1208 109.336 29.979L107.795 29.9645V29.1126H110.391V29.2499C110.409 29.7753 110.297 30.2971 110.065 30.7693C109.866 31.1574 109.553 31.4768 109.169 31.6861C108.766 31.8963 108.315 32.0018 107.86 31.9928Z" fill="#111827"/>
<path fill-rule="evenodd" clip-rule="evenodd" d="M99.6205 31.9206L101.674 26.8458H102.479L104.524 31.9206H103.472L103.113 30.9749H101.014L100.65 31.9206H99.6205ZM102.071 28.2299L101.331 30.152H102.8L102.071 28.2299Z" fill="#111827"/>
<path fill-rule="evenodd" clip-rule="evenodd" d="M93.1652 31.9206V26.8458H93.8615L95.7288 29.8193L97.5897 26.8458H98.2858V31.9206H97.3067V28.887L96.0592 30.881H95.3919L94.1517 28.8986V31.9204L93.1652 31.9206Z" fill="#111827"/>
<path d="M91.4532 26.8458H90.4668V31.9204H91.4532V26.8458Z" fill="#111827"/>
<path fill-rule="evenodd" clip-rule="evenodd" d="M85.4329 31.9206V26.8458H88.9433V27.7121H86.4194V28.9103H88.7261V29.7477H86.4197V31.0542H88.98V31.9204H85.4333L85.4329 31.9206Z" fill="#111827"/>
<path fill-rule="evenodd" clip-rule="evenodd" d="M50.6941 31.9206L52.7473 26.8458H53.5522L55.5975 31.9206H54.5459L54.1868 30.9749H52.0883L51.7243 31.9206H50.6941ZM53.1443 28.2297L52.4046 30.152H53.874L53.1443 28.2297Z" fill="#111827"/>
<path fill-rule="evenodd" clip-rule="evenodd" d="M80.1233 31.9206V26.8458H82.1182C82.4183 26.8394 82.7156 26.905 82.9848 27.0371C83.162 27.1318 83.3183 27.2612 83.4441 27.4174C83.5698 27.5737 83.6626 27.7536 83.7168 27.9464C83.771 28.1392 83.7855 28.341 83.7594 28.5395C83.7333 28.738 83.6672 28.9293 83.565 29.1018C83.4232 29.3242 83.2208 29.502 82.9813 29.6142C82.7984 29.7017 82.6021 29.758 82.4004 29.7807L84.1054 31.9206H82.9088L81.2814 29.7983H81.1104V31.9206H80.1233ZM81.1097 27.6471V29.0332H82.0309C82.2351 29.046 82.4364 28.98 82.5931 28.849C82.6609 28.7833 82.7138 28.7039 82.7482 28.6161C82.7826 28.5283 82.7977 28.4342 82.7926 28.3402C82.795 28.2486 82.7786 28.1574 82.7442 28.0724C82.7099 27.9873 82.6585 27.9102 82.5931 27.8457C82.5177 27.7766 82.429 27.7234 82.3324 27.6893C82.2357 27.6551 82.1332 27.6408 82.0309 27.6471H81.1097Z" fill="#111827"/>
<path fill-rule="evenodd" clip-rule="evenodd" d="M70.6627 31.9206V26.8458H71.3518L73.9048 30.1357V26.8458H74.8984V31.9206H74.1876L71.649 28.6489V31.9206H70.6627Z" fill="#111827"/>
<path fill-rule="evenodd" clip-rule="evenodd" d="M65.5382 31.7978C65.2235 31.6682 64.9376 31.4781 64.6968 31.2384C64.456 30.9988 64.265 30.7142 64.1348 30.401C63.8653 29.7443 63.8641 29.0087 64.1312 28.3511C64.261 28.0401 64.4512 27.7576 64.6907 27.5198C64.9302 27.2819 65.2145 27.0934 65.5273 26.965C66.1958 26.7001 66.9409 26.7001 67.6095 26.965C67.9228 27.0935 68.2076 27.2824 68.4473 27.5208C68.8196 27.8866 69.0737 28.3547 69.1772 28.8652C69.2807 29.3756 69.2289 29.9052 69.0284 30.3861C68.8279 30.8671 68.4877 31.2776 68.0515 31.5651C67.6153 31.8526 67.1028 32.004 66.5796 32C66.2225 32.003 65.8685 31.9342 65.5387 31.7978H65.5382ZM65.1466 28.4845C65.0042 28.7587 64.9331 29.064 64.9398 29.3725C64.937 29.6111 64.9776 29.8483 65.0595 30.0726C65.1327 30.2737 65.2462 30.4579 65.3931 30.6139C65.538 30.7647 65.7136 30.8828 65.9082 30.9605C66.1167 31.0438 66.3397 31.0855 66.5644 31.0832C66.8643 31.0907 67.1605 31.0158 67.4204 30.8667C67.6618 30.7227 67.8587 30.5154 67.9897 30.2676C68.1327 29.9911 68.2038 29.6834 68.1965 29.3725C68.1993 29.1387 68.1598 28.9064 68.08 28.6866C68.007 28.4865 67.8934 28.3035 67.7464 28.1489C67.6016 27.9973 67.4261 27.878 67.2317 27.7987C67.0195 27.7144 66.7926 27.6726 66.5642 27.676C66.2685 27.6701 65.9767 27.7437 65.7196 27.889C65.4762 28.03 65.2776 28.2364 65.1466 28.4845Z" fill="#111827"/>
<path d="M62.4808 26.8458H61.4943V31.9204H62.4808V26.8458Z" fill="#111827"/>
<path fill-rule="evenodd" clip-rule="evenodd" d="M57.5267 31.9206V27.7193H55.902V26.8458H60.145V27.7193H58.5204V31.9206H57.5267Z" fill="#111827"/>
<path fill-rule="evenodd" clip-rule="evenodd" d="M0.986541 28.8986V31.9204H0V26.8458H0.696326L2.56354 29.8194L4.42435 26.8458H5.12068V31.9206H4.14143V28.887L2.89394 30.881H2.22673L0.986541 28.8986Z" fill="#111827"/>
<path fill-rule="evenodd" clip-rule="evenodd" d="M115.285 20.3986V7.85826C115.287 7.66967 115.25 7.48267 115.176 7.30921C115.101 7.13574 114.992 6.97964 114.853 6.85088C114.719 6.71633 114.56 6.60991 114.384 6.53796C114.208 6.466 114.02 6.42998 113.83 6.43204H113.557L113.534 6.20581H121.608C123.336 6.20581 124.841 6.52643 126.122 7.16768C127.363 7.77193 128.396 8.72915 129.09 9.91811C129.787 11.1103 130.136 12.5137 130.136 14.1284C130.136 15.7431 129.787 17.1428 129.09 18.3275C128.392 19.513 127.36 20.469 126.122 21.0778C124.841 21.7267 123.336 22.0512 121.608 22.0511H113.534V21.8244H113.83C114.018 21.8272 114.205 21.7914 114.379 21.7194C114.553 21.6474 114.711 21.5406 114.842 21.4057C115.116 21.1405 115.275 20.7789 115.285 20.3983V20.3986ZM118.06 7.06537V21.1905H121.426C122.594 21.1905 123.598 20.9 124.44 20.3191C125.313 19.6991 125.995 18.8484 126.408 17.863C126.878 16.8066 127.113 15.5616 127.113 14.1279C127.113 12.6943 126.878 11.4494 126.408 10.393C125.993 9.40535 125.307 8.55405 124.429 7.93695C123.543 7.3448 122.494 7.04033 121.427 7.06537H118.061H118.06Z" fill="#111827"/>
<path fill-rule="evenodd" clip-rule="evenodd" d="M101.155 20.3986V7.85821C101.145 7.47765 100.986 7.11607 100.712 6.85082C100.581 6.71588 100.423 6.6091 100.249 6.53706C100.075 6.46502 99.8881 6.42926 99.6996 6.43198H99.4039V6.20575H107.387C107.741 6.20444 108.094 6.18173 108.445 6.13778C108.816 6.09246 109.161 6.03961 109.48 5.97923C109.713 5.94247 109.941 5.88181 110.162 5.79822V9.37515H109.934V9.05776C109.944 8.79756 109.9 8.53818 109.806 8.29513C109.712 8.05207 109.57 7.83033 109.388 7.64313C109.077 7.33129 108.668 7.13546 108.228 7.0885H103.93V13.8115H107.205C107.649 13.807 108.074 13.6281 108.387 13.3135C108.544 13.1602 108.666 12.9766 108.749 12.7742C108.831 12.5717 108.87 12.3547 108.865 12.1365V11.9101H109.092V16.5731H108.865V16.3241C108.869 16.1061 108.829 15.8895 108.747 15.6872C108.665 15.485 108.543 15.3013 108.388 15.1471C108.233 14.9929 108.048 14.8713 107.845 14.7897C107.642 14.7081 107.424 14.668 107.205 14.6719H103.93V21.1686H106.978C107.668 21.1864 108.354 21.0429 108.979 20.7497C109.541 20.4704 110.025 20.0585 110.389 19.55C110.785 18.9977 111.099 18.3916 111.322 17.7505H111.549L110.412 22.0513H99.4036V21.8244H99.6993C99.8878 21.8271 100.075 21.7914 100.249 21.7194C100.423 21.6474 100.58 21.5406 100.711 21.4057C100.986 21.1405 101.145 20.7791 101.155 20.3986Z" fill="#111827"/>
<path fill-rule="evenodd" clip-rule="evenodd" d="M46.1316 27.7121V26.8458H49.8302V27.5316L47.2842 31.0544H49.7721V31.9206H45.9789V31.2348L48.5248 27.7122L46.1316 27.7121Z" fill="#111827"/>
<path d="M44.5576 26.8458H43.5712V31.9204H44.5576V26.8458Z" fill="#111827"/>
<path fill-rule="evenodd" clip-rule="evenodd" d="M38.8707 31.9206V26.8458H39.8571V31.0471H42.1926V31.9204H38.8707V31.9206Z" fill="#111827"/>
<path fill-rule="evenodd" clip-rule="evenodd" d="M32.6981 31.9206L34.7513 26.8458H35.5564L37.6017 31.9206H36.5499L36.191 30.9749H34.0915L33.7275 31.9206H32.6981ZM35.1485 28.2299L34.4088 30.152H35.8782L35.1485 28.2299Z" fill="#111827"/>
<path fill-rule="evenodd" clip-rule="evenodd" d="M83.0225 7.85826C82.8337 7.40815 82.5125 7.0254 82.1012 6.76029C81.7775 6.55564 81.4042 6.44219 81.0209 6.43203H80.8389V6.2058H87.3665V6.43203H87.1618C87.0159 6.43363 86.8722 6.46688 86.7406 6.52946C86.609 6.59203 86.4927 6.68243 86.3999 6.79435C86.18 7.03589 86.1535 7.38299 86.3204 7.83565H86.2927L90.4468 18.024L94.8142 7.74695C94.959 7.337 94.925 7.01923 94.7123 6.79362C94.6132 6.68026 94.4909 6.58929 94.3536 6.5268C94.2163 6.46431 94.0672 6.43175 93.9162 6.43131H93.7116V6.20508H98.4878V6.43131H98.2831C97.9039 6.44478 97.535 6.55805 97.2141 6.75957C96.8574 6.97874 96.5686 7.29196 96.3799 7.66448L90.9368 19.6963C90.9065 19.7566 90.8383 19.9037 90.7322 20.1376C90.6261 20.3715 90.5124 20.6394 90.391 20.9412C90.2697 21.243 90.1635 21.5335 90.0726 21.8127C89.9983 22.022 89.9449 22.2381 89.9133 22.4579H89.7087L83.033 7.85739L83.0225 7.85826Z" fill="#111827"/>
<path d="M31.3635 26.8458H30.3771V31.9204H31.3635V26.8458Z" fill="#111827"/>
<path fill-rule="evenodd" clip-rule="evenodd" d="M53.83 20.3985V7.85817C53.8201 7.4776 53.6609 7.11602 53.3865 6.85078C53.2555 6.71585 53.0981 6.60907 52.9241 6.53703C52.75 6.46499 52.563 6.42923 52.3745 6.43194H52.0787V6.20571H59.3341C59.9905 6.20233 60.6445 6.28606 61.2786 6.45469C61.8645 6.60722 62.4162 6.8683 62.9049 7.22425C63.3744 7.57074 63.7528 8.02504 64.0079 8.54845C64.2868 9.14712 64.423 9.80182 64.4059 10.4615C64.4025 11.1409 64.2553 11.812 63.9738 12.4309C63.6941 13.0692 63.2558 13.6262 62.7001 14.0494C62.0991 14.4942 61.3785 14.7503 60.6304 14.7851C61.075 14.9433 61.4761 15.203 61.8017 15.5434C62.1442 15.8784 62.4527 16.2461 62.7228 16.6413C62.738 16.6564 62.8327 16.796 63.0071 17.06C63.1814 17.3241 63.3975 17.6448 63.6553 18.0222C63.9131 18.399 64.1823 18.7762 64.4628 19.1539C64.7434 19.5316 64.9897 19.8485 65.2019 20.1046C65.4864 20.446 65.7942 20.7674 66.1231 21.0667C66.3874 21.3056 66.6913 21.4971 67.0214 21.6326C67.1685 21.6913 67.3208 21.736 67.4763 21.7662C67.6985 21.7063 67.911 21.6155 68.1078 21.4967C68.4638 21.2724 68.7509 20.9551 68.9378 20.5793L74.1919 8.56005C74.2222 8.49976 74.2866 8.35261 74.3852 8.1186L74.7263 7.31513C74.8553 7.01319 74.9652 6.72271 75.0561 6.44368C75.1304 6.23434 75.1837 6.01822 75.2154 5.79846H75.4201L81.9859 20.523C82.174 20.9223 82.4722 21.2602 82.8459 21.4972C83.1695 21.7019 83.5429 21.8154 83.9262 21.8255H84.1082V22.0519H77.5808V21.8243H77.7855C77.9338 21.8216 78.0798 21.7867 78.2133 21.7223C78.3468 21.6578 78.4647 21.5653 78.5587 21.451C78.7765 21.2124 78.8135 20.8804 78.6697 20.4551L77.4162 17.2522H71.8109L70.5205 20.3985H70.5301C70.4133 20.6381 70.3891 20.912 70.462 21.1682C70.5303 21.3701 70.667 21.5421 70.8486 21.6549C71.0106 21.762 71.1999 21.8209 71.3943 21.8246H71.5991V22.051H66.2259C65.5166 22.0607 64.8092 21.977 64.1221 21.802C63.5458 21.6538 63.0022 21.4006 62.5187 21.0551C62.0538 20.7127 61.6534 20.2912 61.336 19.81C61.2451 19.6742 61.1161 19.4664 60.9493 19.1868C60.7824 18.9072 60.6005 18.5941 60.4035 18.2474C60.2063 17.9003 60.013 17.5646 59.8235 17.2401C59.634 16.9157 59.4748 16.6252 59.3459 16.3686C59.217 16.112 59.1296 15.931 59.0838 15.8254C58.8747 15.4323 58.6062 15.0734 58.2877 14.7613C58.0383 14.5083 57.709 14.3485 57.3551 14.3087V14.0823L57.6508 14.0936C57.8404 14.1008 58.0303 14.097 58.2194 14.0823C58.6412 14.065 59.0585 13.9888 59.459 13.856C59.8953 13.7073 60.2839 13.4456 60.5848 13.0977C60.9184 12.728 61.1611 12.211 61.3129 11.547C61.3431 11.4111 61.3735 11.2376 61.4039 11.0264C61.4344 10.809 61.442 10.589 61.4266 10.37C61.3812 9.31362 61.1082 8.51376 60.6078 7.97048C60.3658 7.70423 60.0712 7.49045 59.7425 7.34247C59.4139 7.19448 59.0581 7.11546 58.6973 7.11034C58.4093 7.09527 58.106 7.0915 57.7875 7.09904C57.469 7.10657 57.1924 7.11034 56.9575 7.11034H56.605V20.3978C56.6027 20.5864 56.6399 20.7734 56.7143 20.9469C56.7887 21.1204 56.8987 21.2765 57.0372 21.4052C57.1709 21.5398 57.3304 21.6462 57.5062 21.7181C57.682 21.79 57.8706 21.826 58.0607 21.8239H58.3336V22.0503H52.079V21.8243H52.3748C52.5632 21.8271 52.7503 21.7913 52.9244 21.7193C53.0984 21.6473 53.2558 21.5406 53.3868 21.4056C53.6611 21.1404 53.8203 20.7788 53.8303 20.3983L53.83 20.3985ZM72.1636 16.392H77.0794L74.6791 10.2592L72.1636 16.392Z" fill="#111827"/>
<path fill-rule="evenodd" clip-rule="evenodd" d="M25.1692 31.9206V26.8458H27.1641C27.4642 26.8394 27.7614 26.905 28.0307 27.0371C28.2079 27.1318 28.3641 27.2612 28.4899 27.4174C28.6157 27.5737 28.7084 27.7536 28.7626 27.9464C28.8168 28.1393 28.8313 28.341 28.8052 28.5395C28.7792 28.738 28.7131 28.9293 28.6109 29.1018C28.4691 29.3242 28.2667 29.502 28.0272 29.6142C27.8443 29.7017 27.648 29.758 27.4465 29.7807L29.1513 31.9206H27.9547L26.3273 29.7983H26.1556V31.9206H25.1692ZM26.1556 27.6471V29.0332H27.0767C27.2809 29.046 27.4821 28.98 27.6387 28.849C27.7065 28.7833 27.7594 28.7039 27.7938 28.6161C27.8283 28.5283 27.8434 28.4342 27.8382 28.3402C27.8406 28.2485 27.8242 28.1574 27.7899 28.0724C27.7556 27.9873 27.7041 27.9102 27.6387 27.8457C27.5633 27.7766 27.4747 27.7234 27.3781 27.6892C27.2815 27.6551 27.179 27.6408 27.0767 27.6471H26.1556Z" fill="#111827"/>
<path fill-rule="evenodd" clip-rule="evenodd" d="M19.2032 31.2384C18.9627 30.9985 18.7718 30.714 18.6411 30.401C18.3715 29.7443 18.3702 29.0087 18.6375 28.3511C18.7673 28.04 18.9574 27.7576 19.197 27.5197C19.4365 27.2819 19.7208 27.0934 20.0336 26.965C20.7022 26.7001 21.4473 26.7001 22.1159 26.965C22.4292 27.0935 22.7139 27.2824 22.9536 27.5208C23.3259 27.8866 23.5801 28.3547 23.6836 28.8652C23.7871 29.3756 23.7353 29.9052 23.5348 30.3861C23.3342 30.8671 22.9941 31.2776 22.5579 31.5651C22.1216 31.8526 21.6092 32.004 21.086 32C20.7289 32.003 20.3749 31.9342 20.0451 31.7978C19.7307 31.6678 19.4448 31.4778 19.2038 31.2384H19.2032ZM22.7027 29.3725C22.7055 29.1387 22.666 28.9064 22.5862 28.6866C22.5132 28.4865 22.3996 28.3035 22.2526 28.1489C22.1077 27.9973 21.9323 27.878 21.7378 27.7987C21.5256 27.7143 21.2988 27.6726 21.0704 27.676C20.7747 27.6701 20.483 27.7437 20.2258 27.889C19.9824 28.03 19.7839 28.2364 19.6528 28.4845C19.5104 28.7587 19.4393 29.064 19.4461 29.3725C19.4432 29.6111 19.4838 29.8483 19.5658 30.0726C19.639 30.2737 19.7525 30.4579 19.8994 30.6139C20.0443 30.7647 20.2199 30.8828 20.4144 30.9605C20.623 31.0438 20.846 31.0855 21.0707 31.0832C21.3706 31.0907 21.6667 31.0158 21.9266 30.8667C22.168 30.7227 22.3649 30.5154 22.496 30.2676C22.6389 29.9911 22.7099 29.6833 22.7027 29.3725Z" fill="#111827"/>
<path fill-rule="evenodd" clip-rule="evenodd" d="M6.75491 22.051H0V21.8244H0.295744C0.484225 21.8271 0.671273 21.7914 0.845335 21.7194C1.0194 21.6474 1.17679 21.5406 1.30777 21.4057C1.5822 21.1405 1.74139 20.7789 1.7513 20.3983V7.85821C1.74142 7.47762 1.58222 7.11602 1.30777 6.85082C1.17679 6.71589 1.01941 6.6091 0.845353 6.53707C0.671292 6.46503 0.484234 6.42926 0.295744 6.43198H0V6.20575H7.98288C8.33647 6.20443 8.68964 6.18172 9.04047 6.13778C9.41198 6.09246 9.75694 6.03961 10.0754 5.97923C10.3085 5.94245 10.5371 5.8818 10.7577 5.79822V9.37515H10.5311V9.05776C10.5403 8.79756 10.4967 8.53818 10.4029 8.29513C10.3091 8.05207 10.167 7.83033 9.98522 7.64313C9.67388 7.33129 9.26429 7.13546 8.82512 7.0885H4.52672V13.8115H7.80173C8.2465 13.807 8.67154 13.6281 8.98456 13.3135C9.14068 13.1602 9.2636 12.9766 9.34574 12.7742C9.42788 12.5717 9.46751 12.3547 9.46218 12.1365V11.9101H9.68962V16.5731H9.46218V16.3241C9.46613 16.1061 9.42588 15.8895 9.34385 15.6872C9.26183 15.485 9.1397 15.3013 8.98476 15.1471C8.82982 14.9929 8.64525 14.8713 8.44206 14.7897C8.23888 14.7081 8.02126 14.668 7.80217 14.6719H4.52715V21.1686H7.57472C8.26563 21.1863 8.95111 21.0429 9.57633 20.7497C10.1377 20.4704 10.6218 20.0585 10.9863 19.55C11.3818 18.9976 11.6957 18.3916 11.9183 17.7505H12.1457L11.0084 22.0513H6.75534L6.75491 22.051Z" fill="#111827"/>
<path fill-rule="evenodd" clip-rule="evenodd" d="M10.3794 31.9206H6.83252V26.8458H10.343V27.7121H7.81892V28.9103H10.1253V29.7477H7.81892V31.0542H10.3793L10.3794 31.9206Z" fill="#111827"/>
<path fill-rule="evenodd" clip-rule="evenodd" d="M33.5819 14.1057C33.5819 12.4457 33.9306 10.997 34.6281 9.75948C35.3147 8.53258 36.3516 7.53602 37.6076 6.89601C38.8963 6.22442 40.3974 5.88868 42.1107 5.88878C42.9066 5.88581 43.7014 5.94634 44.4875 6.06978C45.189 6.17891 45.8809 6.34166 46.5572 6.55659C47.1115 6.72874 47.6483 6.95228 48.1607 7.22427L48.3425 10.8688H48.1378C47.8649 9.8877 47.4593 9.09919 46.9211 8.50325C46.3954 7.91584 45.7364 7.46185 44.999 7.17905C44.2293 6.88744 43.4117 6.74156 42.5882 6.74892C41.3297 6.74892 40.257 7.05452 39.3701 7.66572C38.4552 8.31159 37.7481 9.20768 37.3345 10.2454C36.8643 11.3547 36.6292 12.6714 36.6293 14.1955C36.6293 15.6746 36.853 16.9611 37.3003 18.0551C37.7476 19.1491 38.3921 19.9942 39.2336 20.5903C40.1107 21.1976 41.156 21.5181 42.2244 21.5071C42.8098 21.5101 43.3923 21.4262 43.9528 21.2581C44.4874 21.0978 44.991 20.849 45.4426 20.5223C45.8754 20.2141 46.2361 19.8164 46.5002 19.3565L46.5229 15.7122C46.5229 15.0331 46.1363 14.6936 45.363 14.6937H44.999V14.4679H50.7303V14.694H50.3892C49.6008 14.694 49.2218 15.0335 49.252 15.7125V19.4476C48.8161 19.9786 48.2978 20.4371 47.7168 20.8058C46.9612 21.296 46.1375 21.6735 45.272 21.9262C44.2161 22.2346 43.1198 22.3834 42.0195 22.3677C40.3517 22.3526 38.8809 22.0093 37.6074 21.3378C36.3615 20.693 35.3305 19.7022 34.6394 18.4855C33.9344 17.2559 33.5819 15.7959 33.5819 14.1057Z" fill="#111827"/>
<path fill-rule="evenodd" clip-rule="evenodd" d="M29.9597 22.368L18.1592 10.7752L18.1756 20.444H18.1783C18.1811 20.8094 18.3282 21.159 18.5878 21.4173C18.8474 21.6757 19.1986 21.822 19.5657 21.8247H19.9979V22.0511H13.8344V21.8244H14.2665C14.6336 21.8217 14.9848 21.6753 15.2444 21.417C15.504 21.1586 15.651 20.809 15.6538 20.4437V8.69579C15.6628 8.01827 15.621 7.34103 15.5287 6.66971L15.4036 5.86609H15.6311L27.435 17.4815V7.8129C27.4295 7.44232 27.2785 7.08861 27.0143 6.82739C26.8853 6.69766 26.731 6.5956 26.5609 6.52748C26.3907 6.45936 26.2084 6.42663 26.025 6.43131H25.5929V6.20508H31.7337V6.43131H31.3248C31.1435 6.42879 30.9635 6.46254 30.7955 6.53058C30.6275 6.59862 30.4749 6.69955 30.3469 6.82739C30.2131 6.95515 30.106 7.108 30.0318 7.27714C29.9576 7.44629 29.9178 7.62837 29.9147 7.8129V19.4705C29.9122 19.9618 29.935 20.453 29.983 20.942C30.0284 21.3796 30.0701 21.7267 30.1081 21.9833L30.1649 22.368H29.9597Z" fill="#111827"/>
<path fill-rule="evenodd" clip-rule="evenodd" d="M16.008 31.9206V28.887L14.7605 30.881H14.0932L12.853 28.8986V31.9204H11.8666V26.8458H12.5629L14.4303 29.8193L16.2911 26.8458H16.9873V31.9206H16.008Z" fill="#111827"/>
</g>
<defs>
<clipPath id="clip0_313_2005">
<rect width="166" height="32" fill="white"/>
</clipPath>
</defs>
</svg>
